<svg preserveAspectRatio="none" width="100%" height="100%" overflow="visible" style="display: block;" viewBox="0 0 20 20" fill="none" xmlns="http://www.w3.org/2000/svg">
<g id="Bold / School / Calculator Minimalistic">
<path id="Vector" fill-rule="evenodd" clip-rule="evenodd" d="M10 18.3333C6.07163 18.3333 4.10744 18.3333 2.88706 17.1129C1.66667 15.8926 1.66667 13.9283 1.66667 10C1.66667 6.07163 1.66667 4.10744 2.88706 2.88706C4.10744 1.66667 6.07163 1.66667 10 1.66667C13.9283 1.66667 15.8926 1.66667 17.1129 2.88706C18.3333 4.10744 18.3333 6.07163 18.3333 10C18.3333 13.9283 18.3333 15.8926 17.1129 17.1129C15.8926 18.3333 13.9283 18.3333 10 18.3333ZM7.29167 5.41665C7.29167 5.07147 7.01184 4.79165 6.66667 4.79165C6.32149 4.79165 6.04167 5.07147 6.04167 5.41665V6.45832H5C4.65482 6.45832 4.375 6.73815 4.375 7.08333C4.375 7.42851 4.65482 7.70833 5 7.70833H6.04167V8.75C6.04167 9.09517 6.32149 9.375 6.66667 9.375C7.01184 9.375 7.29167 9.09517 7.29167 8.75V7.70833H8.33333C8.6785 7.70833 8.95833 7.42851 8.95833 7.08333C8.95833 6.73815 8.6785 6.45832 8.33333 6.45832H7.29167V5.41665ZM11.6667 6.45832C11.3215 6.45832 11.0417 6.73813 11.0417 7.08332C11.0417 7.42849 11.3215 7.70832 11.6667 7.70832H15C15.3452 7.70832 15.625 7.42849 15.625 7.08332C15.625 6.73813 15.3452 6.45832 15 6.45832H11.6667ZM11.6667 11.4583C11.3215 11.4583 11.0417 11.7382 11.0417 12.0833C11.0417 12.4285 11.3215 12.7083 11.6667 12.7083H15C15.3452 12.7083 15.625 12.4285 15.625 12.0833C15.625 11.7382 15.3452 11.4583 15 11.4583H11.6667ZM5.85861 11.6414C5.61453 11.3973 5.2188 11.3973 4.97472 11.6414C4.73065 11.8855 4.73065 12.2812 4.97472 12.5252L5.78279 13.3333L4.97473 14.1414C4.73066 14.3855 4.73066 14.7812 4.97473 15.0252C5.21882 15.2693 5.61454 15.2693 5.85862 15.0252L6.66667 14.2172L7.47472 15.0252C7.71879 15.2693 8.11452 15.2693 8.35858 15.0252C8.60267 14.7812 8.60267 14.3855 8.35858 14.1414L7.55056 13.3333L8.35858 12.5252C8.60267 12.2812 8.60267 11.8855 8.35858 11.6414C8.11453 11.3973 7.7188 11.3973 7.47473 11.6414L6.66667 12.4494L5.85861 11.6414ZM11.6667 13.9583C11.3215 13.9583 11.0417 14.2382 11.0417 14.5833C11.0417 14.9285 11.3215 15.2083 11.6667 15.2083H15C15.3452 15.2083 15.625 14.9285 15.625 14.5833C15.625 14.2382 15.3452 13.9583 15 13.9583H11.6667Z" fill="var(--fill-0, white)"/>
</g>
</svg>
