<svg width="100%" height="100%" overflow="visible" style="display: block;" viewBox="0 0 20 20" fill="none" xmlns="http://www.w3.org/2000/svg">
<g id="Frame">
<path id="Vector" d="M18.3333 11.6667V10C18.3333 9.30083 18.3333 8.67942 18.3226 8.125H1.67742C1.66667 8.67942 1.66667 9.30083 1.66667 10V11.6667C1.66667 14.8093 1.66667 16.3807 2.64297 17.357C3.61929 18.3333 5.19063 18.3333 8.33333 18.3333H11.6667C14.8093 18.3333 16.3807 18.3333 17.357 17.357C18.3333 16.3807 18.3333 14.8093 18.3333 11.6667Z" fill="var(--fill-0, white)"/>
<path id="Vector_2" d="M6.45833 2.08333C6.45833 1.73816 6.17851 1.45833 5.83333 1.45833C5.48816 1.45833 5.20833 1.73816 5.20833 2.08333V3.39938C4.00889 3.49542 3.22147 3.73114 2.64297 4.30964C2.06447 4.88814 1.82876 5.67556 1.73272 6.875H18.2673C18.1713 5.67556 17.9355 4.88814 17.357 4.30964C16.7785 3.73114 15.9911 3.49542 14.7917 3.39938V2.08333C14.7917 1.73816 14.5118 1.45833 14.1667 1.45833C13.8215 1.45833 13.5417 1.73816 13.5417 2.08333V3.34408C12.9873 3.33333 12.3658 3.33333 11.6667 3.33333H8.33333C7.63414 3.33333 7.01273 3.33333 6.45833 3.34408V2.08333Z" fill="var(--fill-0, white)"/>
</g>
</svg>
