<svg preserveAspectRatio="none" width="100%" height="100%" overflow="visible" style="display: block;" viewBox="0 0 20 20" fill="none" xmlns="http://www.w3.org/2000/svg">
<g id="Bold / Map &#38; Location / Compass">
<path id="Vector" fill-rule="evenodd" clip-rule="evenodd" d="M10 18.3333C14.6023 18.3333 18.3333 14.6023 18.3333 10C18.3333 5.39762 14.6023 1.66667 10 1.66667C5.39762 1.66667 1.66667 5.39762 1.66667 10C1.66667 14.6023 5.39762 18.3333 10 18.3333ZM11.6302 11.7457C11.4692 11.887 11.2639 11.9691 10.8533 12.1333C8.9285 12.9033 7.96613 13.2882 7.41642 12.9147C7.28608 12.8261 7.17367 12.7137 7.0851 12.5833C6.71155 12.0337 7.09652 11.0712 7.86644 9.14642C8.03067 8.73583 8.11278 8.53058 8.254 8.3695C8.28999 8.32849 8.32862 8.28985 8.36967 8.25387C8.53067 8.11264 8.736 8.03052 9.14658 7.8663C11.0713 7.09637 12.0337 6.71142 12.5835 7.08497C12.7138 7.17353 12.8262 7.28595 12.9148 7.41628C13.2883 7.966 12.9034 8.92842 12.1335 10.8532C11.9692 11.2637 11.8872 11.4691 11.7459 11.6301C11.7099 11.6712 11.6712 11.7097 11.6302 11.7457Z" fill="var(--fill-0, white)"/>
</g>
</svg>
