<svg preserveAspectRatio="none" width="100%" height="100%" overflow="visible" style="display: block;" viewBox="0 0 14 14" fill="none" xmlns="http://www.w3.org/2000/svg">
<g id="Bold / Video, Audio, Sound / Video Library">
<path id="Vector" d="M4.9641 1.16667H9.03583C9.17146 1.16664 9.27541 1.16661 9.36629 1.1755C10.0125 1.23872 10.5415 1.62725 10.7658 2.15062H3.23416C3.45846 1.62725 3.9874 1.23872 4.63363 1.1755C4.72452 1.16661 4.82849 1.16664 4.9641 1.16667Z" fill="var(--fill-0, white)"/>
<path id="Vector_2" d="M3.68114 2.75515C2.86994 2.75515 2.20478 3.24501 1.98281 3.89486C1.97818 3.90841 1.97374 3.92203 1.9695 3.93571C2.20176 3.86538 2.44347 3.81943 2.68816 3.78806C3.31838 3.70726 4.11483 3.70731 5.04001 3.70736H9.06039C9.98556 3.70731 10.782 3.70726 11.4123 3.78806C11.6569 3.81943 11.8987 3.86538 12.1309 3.93571C12.1267 3.92203 12.1223 3.90841 12.1176 3.89486C11.8956 3.24501 11.2304 2.75515 10.4193 2.75515H3.68114Z" fill="var(--fill-0, white)"/>
<path id="Vector_3" fill-rule="evenodd" clip-rule="evenodd" d="M8.9411 4.39952H5.05889C3.09026 4.39952 2.10593 4.39952 1.55302 4.97517C1.00011 5.55082 1.1302 6.44017 1.39038 8.21893L1.63711 9.90564C1.84115 11.3006 1.94317 11.998 2.46653 12.4157C2.98989 12.8333 3.7618 12.8333 5.30562 12.8333H8.69435C10.2382 12.8333 11.0101 12.8333 11.5335 12.4157C12.0569 11.998 12.1588 11.3006 12.3629 9.90564L12.6096 8.21893C12.8698 6.44023 12.9999 5.55082 12.447 4.97517C11.8941 4.39952 10.9097 4.39952 8.9411 4.39952ZM8.5057 9.21328C8.83143 9.01139 8.83143 8.48861 8.5057 8.28672L6.53893 7.06743C6.22236 6.8712 5.83333 7.12664 5.83333 7.53077V9.96922C5.83333 10.3734 6.22236 10.6288 6.53893 10.4326L8.5057 9.21328Z" fill="var(--fill-0, white)"/>
</g>
</svg>
